<svg width="104" height="25" viewBox="0 0 104 25" fill="none" xmlns="http://www.w3.org/2000/svg">
<path d="M9.59961 11.9994L11.9993 14.4003L14.3997 11.9994L11.9993 9.59961L9.59961 11.9994Z" fill="#231F20"/>
<path d="M7.19876 19.2018L4.79883 16.8021L7.19876 14.4023L9.59914 16.8021L7.19876 19.2018Z" fill="#797A7B"/>
<path d="M16.8002 19.2018L14.4004 16.8021L16.8002 14.4023L19.2004 16.8021L16.8002 19.2018Z" fill="#464648"/>
<path d="M11.9993 24.0011L9.59961 21.6009L11.9993 19.2012L14.3997 21.6009L11.9993 24.0011Z" fill="#BEBDBB"/>
<rect width="103.042" height="14.839" fill="white"/>
<path d="M12 0.21875L0 12.2189L2.40036 14.6198L12 5.01946L21.6009 14.6198L24.0008 12.2189L12 0.21875Z" fill="#231F20"/>
<path d="M88.0366 1.39193C88.0366 2.16076 88.6602 2.78408 89.4292 2.78415C90.198 2.78415 90.8209 2.16076 90.8209 1.39185C90.8209 0.623174 90.1973 0 89.4292 0C88.6602 0 88.0366 0.623174 88.0366 1.39193ZM79.6959 13.1306C78.7064 13.1306 78.2264 12.6795 78.2264 11.7512C78.2264 11.1216 78.4657 10.6955 78.9392 10.4852C79.4107 10.2758 79.9534 10.1694 80.5514 10.1694C80.8366 10.1694 81.1174 10.1847 81.3851 10.2146C81.6056 10.2387 82.0297 10.2879 82.1781 10.3051V10.6753C82.1184 11.4794 81.8296 12.098 81.3204 12.5098C80.8119 12.9216 80.2647 13.1306 79.6959 13.1306ZM85.8003 14.4387L85.78 13.2326C85.601 13.2795 85.449 13.303 85.3259 13.303C84.9571 13.303 84.5169 13.1355 84.5169 12.3368V7.78776C84.5169 6.6733 84.1583 5.8267 83.4504 5.27178C82.7368 4.71334 81.8144 4.42984 80.7092 4.42984C79.9512 4.42984 79.2745 4.49757 78.697 4.63099C78.1267 4.76259 77.4669 5.00601 76.7363 5.35448L76.326 7.77459L78.1375 7.96448L78.5362 6.43701L78.5617 6.42348C78.8214 6.28548 79.097 6.19249 79.3809 6.14637C79.6602 6.10097 79.9629 6.07827 80.2816 6.07827C81.1464 6.07827 81.6964 6.33371 81.9176 6.83793C82.1301 7.32507 82.2384 7.87928 82.2384 8.48565V9.12223L82.1649 9.11371C81.9089 9.08381 81.6302 9.06119 81.3364 9.04664C81.0374 9.03173 80.7449 9.02386 80.4612 9.02386C79.319 9.02386 78.2437 9.22328 77.2652 9.61612C76.3063 10.0014 75.8197 10.8107 75.8197 12.0217C75.8197 13.0588 76.1543 13.794 76.8142 14.207C77.4829 14.6263 78.1725 14.839 78.8622 14.839C79.6544 14.839 80.3266 14.6313 80.8606 14.2218C81.3989 13.8091 81.8216 13.3383 82.1162 12.8225L82.2384 12.6085V12.8948C82.3411 14.2027 82.9973 14.839 84.2449 14.839C84.8029 14.839 85.3259 14.704 85.8003 14.4387ZM101.869 13.6126C102.534 12.8118 102.927 11.9689 103.041 11.1059L101.14 10.7469C100.868 12.2636 100.085 13.0326 98.8124 13.0326C97.0504 13.0326 96.1562 11.9043 96.1562 9.67927C96.1562 7.39426 97.0271 6.23579 98.7448 6.23579C99.3668 6.23579 99.9676 6.37416 100.529 6.64776L100.558 6.66196L100.892 8.30182L102.702 8.11275L102.31 5.37326C101.741 5.04116 101.158 4.79882 100.575 4.65332C99.9823 4.50499 99.3813 4.42984 98.7891 4.42984C97.2984 4.42984 96.0756 4.92301 95.1546 5.89589C94.2327 6.86952 93.7651 8.18047 93.7651 9.7921C93.7651 11.4327 94.2167 12.6973 95.1079 13.551C95.9992 14.4053 97.1698 14.839 98.5869 14.839C100.091 14.839 101.195 14.4263 101.869 13.6126ZM92.5894 14.614V12.9545H91.127V5.02536H87.3943V6.70685H88.9438V12.9545H87.4816V14.614H92.5894ZM72.6783 14.016C73.518 13.476 73.9428 12.6838 73.9428 11.6608C73.9428 10.887 73.7448 10.3005 73.355 9.91767C72.9591 9.52948 72.4606 9.24713 71.8735 9.07784C71.2773 8.90681 70.6736 8.77099 70.0793 8.67437C69.4746 8.57579 68.9621 8.442 68.5561 8.27635C68.1256 8.10073 67.9072 7.78456 67.9072 7.33716C67.9072 6.90887 68.0812 6.5906 68.4242 6.39118C68.7556 6.19817 69.1646 6.10061 69.6393 6.10061C70.2449 6.10061 70.8514 6.21556 71.442 6.44304L71.4781 6.45679L71.6773 7.94033L73.4415 7.73029L73.2036 5.32925C72.071 4.73247 70.8493 4.42984 69.5719 4.42984C68.5949 4.42984 67.6536 4.64729 66.7742 5.07629C65.9094 5.4978 65.4707 6.28904 65.4707 7.42729C65.4707 8.20142 65.6724 8.78794 66.0701 9.17046C66.4731 9.5593 66.9829 9.84172 67.5851 10.0107C68.1961 10.182 68.8149 10.3179 69.4243 10.4141C70.0444 10.5131 70.5686 10.655 70.9828 10.8356C71.42 11.0264 71.6415 11.3497 71.6415 11.7964C71.6415 12.2573 71.3978 12.6068 70.9171 12.835C70.4528 13.056 69.9018 13.1676 69.2789 13.1676C69.0211 13.1676 68.7264 13.1451 68.4029 13.1C68.0751 13.0543 67.7627 12.9695 67.4744 12.8478L67.4337 12.8303L67.4559 11.5402L65.6869 11.3717L65.3412 13.8782C65.9091 14.1932 66.5527 14.4337 67.2556 14.5923C67.9752 14.7558 68.7014 14.839 69.4139 14.839C70.7314 14.839 71.8296 14.5622 72.6783 14.016ZM60.6225 7.04514C61.1492 7.62589 61.4163 8.47424 61.4163 9.5668C61.4163 10.5975 61.1617 11.4483 60.6595 12.0951C60.1535 12.7473 59.4466 13.0776 58.5585 13.0776C57.6385 13.0776 56.9346 12.7348 56.4663 12.0586C56.0028 11.3902 55.7676 10.5592 55.7676 9.58913C55.7676 8.55769 56.0149 7.72178 56.5026 7.10472C56.9936 6.48306 57.6853 6.16806 58.5585 6.16806C59.3993 6.16806 60.0938 6.4632 60.6225 7.04514ZM62.3077 13.4048C63.2884 12.4535 63.7855 11.1847 63.7855 9.63417C63.7855 8.23052 63.3512 6.99407 62.4943 5.95977C61.64 4.92941 60.331 4.40677 58.6035 4.40677C56.8903 4.40677 55.5809 4.93326 54.7121 5.97112C53.8404 7.01284 53.3986 8.27563 53.3986 9.7243C53.3986 11.2901 53.8657 12.5475 54.7869 13.4615C55.7076 14.3755 56.9463 14.839 58.4681 14.839C60.0343 14.839 61.3262 14.3563 62.3077 13.4048ZM46.6878 14.614V12.6225H48.1173V5.54458H47.923L43.7011 13.5863H42.6629L38.2177 5.3438H38.0239V12.6225H39.5429V14.614H34.1787V12.6225H35.8317V2.21648H34V0.224953H37.8269L43.1879 10.1206H43.3563L48.4493 0.224953H52.2976V2.21648H50.466V12.6225H52.1191V14.614H46.6878Z" fill="#231F20"/>
</svg>
